# xmcd CD database file
#
# Track frame offsets:
#	150
#	22547
#	49078
#	68789
#	94523
#	116246
#	130612
#	154915
#
# Disc length: 2367 seconds
#
# Revision: 0
# Processed by: cddbd v1.4PL0 Copyright (c) Steve Scherf et al.
# Submitted via: CDex 1.50
#
DISCID=5b093d08
DTITLE=Vince Guaraldi - Jazz impressions of a Black Orpheus
DYEAR=1900
DGENRE=Jazz
TTITLE0=Samba de Orpheus
TTITLE1=Manha de Carnival
TTITLE2=O NOsso Omor
TTITLE3=Generique
TTITLE4=Caste your Fate to the Wind
TTITLE5=Moon River
TTITLE6=Alma-Ville
TTITLE7=Since I Fell for You
EXTD=
EXTT0=
EXTT1=
EXTT2=
EXTT3=
EXTT4=
EXTT5=
EXTT6=
EXTT7=
PLAYORDER=
